<svg width="48" height="48" viewBox="0 0 48 48" fill="none" xmlns="http://www.w3.org/2000/svg">
<circle cx="24" cy="24" r="20" fill="#003F40"/>
<path d="M24.3716 26.2455C24.2572 26.3148 24.1281 26.3507 24 26.3507C23.8712 26.3507 23.7422 26.3148 23.6278 26.2455L14.3125 20.5658C14.1744 20.4816 14 20.5842 14 20.7501V29.3766C14 30.2727 14.7041 31 15.5722 31H32.4272C33.2956 31 34 30.2727 34 29.3766V20.7501C34 20.5842 33.825 20.4816 33.6872 20.5658L24.3716 26.2455V26.2455ZM24.4131 24.4653L33.8922 18.686C33.9597 18.644 34.0006 18.5675 33.9938 18.4869C33.9259 17.6557 33.2491 17 32.4272 17H15.5719C14.7497 17 14.0731 17.6557 14.0053 18.4869C13.9988 18.5675 14.0394 18.644 14.1069 18.686L23.5859 24.4653C23.8412 24.6211 24.1578 24.6211 24.4131 24.4653V24.4653Z" fill="white"/>
</svg>